<svg width="54" height="67" viewBox="0 0 54 67" fill="none" xmlns="http://www.w3.org/2000/svg">
<g clip-path="url(#clip0_199_335)">
<rect width="53.0181" height="65.4" transform="translate(0.675781 0.950195)" fill="#0D0DD2"/>
<path d="M56.7314 85.425H6.47464C3.26594 85.425 0.675781 81.1649 0.675781 75.8875V18.6625C0.675781 13.3851 3.26594 9.125 6.47464 9.125H56.7314C59.9401 9.125 62.5302 13.3851 62.5302 18.6625V75.8875C62.5302 81.1649 59.9401 85.425 56.7314 85.425ZM6.47464 15.4833C5.39218 15.4833 4.54168 16.8822 4.54168 18.6625V75.8875C4.54168 77.6678 5.39218 79.0667 6.47464 79.0667H56.7314C57.8138 79.0667 58.6643 77.6678 58.6643 75.8875V18.6625C58.6643 16.8822 57.8138 15.4833 56.7314 15.4833H6.47464Z" fill="#957751"/>
<path d="M44.3842 27.233H41.899C41.1369 27.233 40.5735 27.5192 40.209 28.4593L35.4374 41.8663H38.8173C38.8173 41.8663 39.4138 40.0678 39.5132 39.659H43.6552C43.7878 40.1495 44.0529 41.8254 44.0529 41.8254H47.0683L44.3842 27.2739V27.233ZM40.441 36.6343C40.7392 35.7759 41.7333 32.5468 41.7333 32.5468C41.7333 32.6285 42.0315 31.6884 42.1309 31.1979L42.3629 32.5059L43.125 36.7569H40.441V36.6752V36.6343ZM35.6694 37.043C35.6694 40.0678 33.4492 42.0707 30.0362 42.0707C28.5782 42.0707 27.1865 41.7028 26.4243 41.294L26.8882 37.9832L27.2859 38.1875C28.3462 38.7598 29.0421 38.9642 30.3013 38.9642C31.2291 38.9642 32.2232 38.5145 32.2232 37.5335C32.2232 36.8795 31.8256 36.4708 30.5332 35.735C29.3072 34.9993 27.6835 33.8548 27.6835 31.811C27.6835 28.9498 29.9368 26.9878 33.151 26.9878C34.3771 26.9878 35.4043 27.2739 36.067 27.6418L35.6031 30.7892L35.3711 30.503C34.7747 30.2169 34.0457 29.9308 32.9191 29.9308C31.693 30.0125 31.1297 30.6665 31.1297 31.2388C31.1297 31.8928 31.8256 32.3833 32.9191 33.0373C34.7747 34.1 35.6362 35.3263 35.6362 37.043H35.6694ZM7.30469 27.3557L7.37096 27.0695H12.3745C13.0704 27.0695 13.6006 27.3557 13.7663 28.2958L14.8598 34.754C13.7663 31.3205 11.1816 28.5002 7.30469 27.3557Z" fill="#957751"/>
<path d="M21.8812 27.2326L16.8114 41.7841H13.3652L10.4492 29.6034C12.5368 31.2384 14.293 33.8544 14.9226 35.612L15.2871 37.1244L18.4351 27.1509H21.8812V27.2326ZM23.2398 27.1509H26.4209L24.3996 41.7841H21.2185L23.2398 27.1509Z" fill="#957751"/>
</g>
<defs>
<clipPath id="clip0_199_335">
<rect width="53.0181" height="65.4" fill="white" transform="translate(0.675781 0.950195)"/>
</clipPath>
</defs>
</svg>
