<svg width="50" height="66" viewBox="0 0 50 66" fill="none" xmlns="http://www.w3.org/2000/svg">
<g clip-path="url(#clip0_199_324)">
<path d="M20.6727 54.1568C20.1603 54.1568 19.8187 54.8108 19.8187 55.9008C19.8187 56.7728 20.1603 57.6448 20.8435 57.6448C21.3559 57.6448 21.6975 56.9908 21.6975 55.9008C21.6975 55.0288 21.3559 54.1568 20.6727 54.1568ZM7.00868 54.1568C7.00868 54.3748 6.83788 54.8108 6.83788 55.0288L6.66708 56.1188H7.52108L7.35028 55.0288C7.17948 54.8108 7.17948 54.5928 7.00868 54.1568ZM3.76348 54.1568H3.42188V55.6828H3.76348C4.27588 55.6828 4.44668 55.4648 4.44668 54.8108C4.44668 54.1568 4.27588 54.1568 3.76348 54.1568ZM16.9151 54.1568H16.5735V55.6828H16.9151C17.4275 55.6828 17.5983 55.4648 17.5983 54.8108C17.5983 54.1568 17.2567 54.1568 16.9151 54.1568ZM24.4303 54.1568H24.0887V55.4648H24.4303C24.9427 55.4648 25.1135 55.2468 25.1135 54.8108C25.1135 54.3748 24.7719 54.1568 24.4303 54.1568ZM50.0503 16.4428L25.1135 0.74681C24.9711 0.632526 24.8112 0.55832 24.6446 0.529143C24.478 0.499967 24.3084 0.51649 24.1471 0.577612C23.9859 0.638734 23.8367 0.743047 23.7095 0.883591C23.5824 1.02414 23.4802 1.19768 23.4098 1.39263L23.4076 1.40081V1.61881L22.8952 2.70881L19.9916 10.3388H30.4446C31.9348 10.3388 33.1432 11.8812 33.1432 13.7832V13.8295V63.9668C33.314 63.7488 33.4848 63.5308 33.4848 63.3128L50.5648 18.6228C50.6491 18.4393 50.7029 18.2357 50.7229 18.0246C50.743 17.8134 50.7288 17.5993 50.6814 17.3954C50.634 17.1916 50.5542 17.0023 50.4471 16.8394C50.34 16.6765 50.2079 16.5433 50.0588 16.4483L50.0524 16.4455L50.0503 16.4428ZM20.3311 40.4228C19.1844 39.9198 17.9875 39.6271 16.7763 39.5535L16.7443 39.5508V45.8728C17.6184 45.3725 18.3934 44.6283 19.0124 43.695C19.6313 42.7617 20.0782 41.663 20.3204 40.48L20.3311 40.4228ZM20.8435 26.9068C19.5923 27.4894 18.2704 27.7855 16.9386 27.7815L16.7357 27.7788H16.7464V31.2668H21.358C21.3428 29.7508 21.1624 28.2449 20.8221 26.7924L20.8456 26.9068H20.8435ZM16.7443 19.9308V25.8168L16.9044 25.8195C18.1406 25.8195 19.3191 25.498 20.3887 24.9176L20.3311 24.9448C20.1081 23.8031 19.6675 22.7494 19.0484 21.8775C18.4293 21.0056 17.651 20.3425 16.7827 19.9472L16.7443 19.9308Z" fill="#0D0DD2"/>
<path d="M22.5516 39.1149C23.1707 39.5482 23.649 40.2295 23.9116 41.0524L23.918 41.0769C25.2871 39.0783 26.1236 36.5764 26.3071 33.932L26.3092 33.8829H23.064C23.1487 35.6886 22.9669 37.4985 22.5281 39.2185L22.5516 39.1149ZM9.05838 42.8209C9.5964 43.4313 10.2156 43.9436 10.8923 44.3251L10.9372 44.3469C10.4653 43.5294 10.0618 42.5948 9.76293 41.5947L9.74158 41.5129C9.4221 41.8494 9.18621 42.2972 9.06265 42.8019L9.05838 42.8209ZM22.7224 22.1109C22.0819 21.4706 21.3581 20.8247 20.6066 20.228L20.502 20.1489C21.1105 21.0891 21.6271 22.1682 22.0136 23.3345L22.0392 23.4189C22.3808 23.4189 22.7224 22.7649 22.7224 22.1109ZM20.8436 44.3469C21.4997 43.9436 22.0691 43.435 22.5516 42.8209C22.5228 42.5528 22.447 42.2964 22.3298 42.0709C22.2127 41.8454 22.0571 41.6565 21.8748 41.5184L21.8684 41.5129C21.6933 42.6002 21.3346 43.554 20.835 44.3606L20.8436 44.3469ZM23.2348 31.4849H26.48C26.254 28.7926 25.4804 26.2224 24.2361 24.0293L24.2596 24.0729C23.9343 24.9176 23.4011 25.6029 22.7416 26.024L22.7224 26.0349C22.8932 27.7789 23.064 29.5229 23.2348 31.4849ZM21.356 33.8829H16.7444V37.1529C18.1786 37.1993 19.594 37.5808 20.9205 38.2784L20.8436 38.2429C21.1724 36.8308 21.3448 35.3669 21.356 33.8938V33.8829ZM10.7664 20.8029C10.1392 21.1108 9.55897 21.5562 9.05198 22.1191L9.05838 22.1109C9.08626 22.6151 9.26978 23.0846 9.56865 23.4162L9.57078 23.4189C9.84406 22.408 10.2518 21.536 10.7707 20.7948L10.7664 20.8029ZM9.05838 25.8169C8.52891 25.3517 8.06963 24.7683 7.70266 24.0947L7.69198 24.0729C6.3138 26.2338 5.48086 28.8768 5.30292 31.6539L5.30078 31.7029H8.37518C8.40988 29.6539 8.65025 27.619 9.09041 25.648L9.05838 25.8169ZM14.8656 45.4369V39.5509C13.6599 39.7191 12.4687 40.0265 11.3065 40.4693L11.4496 40.4229C11.6609 41.5386 12.0775 42.5739 12.6649 43.4431C13.2522 44.3122 13.9935 44.9901 14.8272 45.4206L14.8656 45.4369Z" fill="#0D0DD2"/>
<path d="M31.0897 14.4806V14.4152C31.0887 13.9973 30.9664 13.5946 30.7464 13.2851C30.5263 12.9756 30.2242 12.7811 29.8984 12.7393H2.05157C2.01599 12.7357 1.97756 12.7339 1.93628 12.7339C1.76122 12.7344 1.58817 12.7815 1.42817 12.8722C1.26817 12.9629 1.12473 13.0951 1.00701 13.2605C0.88929 13.4259 0.799871 13.6208 0.744458 13.8327C0.689044 14.0447 0.668853 14.269 0.685173 14.4915V14.4861V64.2146C0.685173 65.1656 1.28938 65.9341 2.03236 65.9341H29.7212C30.0747 65.9025 30.4074 65.7093 30.6584 65.39C30.9094 65.0707 31.0618 64.6466 31.0876 64.1955V64.1901L31.0897 14.4806ZM3.59091 31.0486C3.84898 27.3546 5.11318 23.8928 7.16372 21.2652C9.21426 18.6375 11.9214 17.0102 14.8146 16.6661L14.8637 16.6606V16.4426H16.7425V16.6606C18.3461 16.8216 19.9091 17.3842 21.3424 18.3163C22.7756 19.2483 24.051 20.5315 25.0957 22.0926C26.1404 23.6538 26.934 25.4622 27.4311 27.4148C27.9282 29.3674 28.1191 31.4258 27.9929 33.4725C27.8667 35.5192 27.426 37.5142 26.6957 39.3435C25.9655 41.1728 24.9601 42.8007 23.737 44.1341C22.5139 45.4674 21.097 46.4803 19.5672 47.1148C18.0373 47.7492 16.4246 47.9929 14.821 47.8319L14.8637 47.8346C8.50782 47.1179 3.56315 40.3572 3.56315 32.1195C3.56315 31.7417 3.57312 31.3683 3.59304 30.9996L3.59091 31.0486ZM3.76171 56.5546H3.42011V58.2986H2.56611V53.2846H3.76171C4.1913 53.2239 4.62236 53.3815 4.96158 53.7233L4.95731 53.7206C5.29891 53.9386 5.29891 54.3746 5.29891 54.8106C5.29469 55.2154 5.17297 55.6038 4.95731 55.9006C4.81232 56.1075 4.63459 56.2728 4.43585 56.3855C4.23711 56.4983 4.02189 56.5559 3.80441 56.5546H3.76171ZM7.86091 58.2986L7.51931 56.9906H6.49451L6.15291 58.2986H5.29891L6.49451 53.2846H7.69011L8.88571 58.2986H7.86091ZM10.2521 58.2986C9.89688 58.3349 9.54016 58.2572 9.2145 58.0724L9.22731 58.0806L9.39811 57.2086C9.72304 57.3897 10.0782 57.4646 10.4315 57.4266H10.4229C10.7645 57.4266 10.9353 57.2086 10.9353 56.9906C10.9353 56.7726 10.7645 56.5546 10.2521 56.3366C9.73971 55.9006 9.22731 55.4646 9.22731 54.8106C9.22731 53.9386 9.73971 53.2846 10.7645 53.2846C11.1198 53.2483 11.4765 53.326 11.8021 53.5108L11.7893 53.5026L11.6185 54.3746C11.3608 54.175 11.0561 54.0978 10.7581 54.1566H10.7645C10.4229 54.1566 10.2521 54.3746 10.2521 54.5926C10.2521 54.8106 10.4229 55.0286 10.9353 55.2466C11.5118 55.3829 11.9452 56.0096 11.9601 56.7699C11.9601 57.6419 11.4477 58.2986 10.2521 58.2986ZM13.4973 58.2986C13.1421 58.3349 12.7854 58.2572 12.4597 58.0724L12.4725 58.0806V57.2086C12.7974 57.3897 13.1526 57.4646 13.5059 57.4266H13.4973C13.8389 57.4266 14.1805 57.2086 14.1805 56.9906C14.1805 56.7726 14.0097 56.5546 13.4973 56.3366C13.2168 56.3034 12.9561 56.1378 12.7662 55.8722C12.5762 55.6066 12.4708 55.2601 12.4704 54.9005L12.4725 54.8052V54.8106C12.4725 53.9386 12.9849 53.2846 14.0097 53.2846C14.365 53.2483 14.7217 53.326 15.0473 53.5108L15.0345 53.5026L14.8637 54.3746C14.606 54.175 14.3013 54.0978 14.0033 54.1566H14.0097C13.6681 54.1566 13.4973 54.3746 13.4973 54.5926C13.4973 54.8106 13.6681 55.0286 14.1805 55.2466C14.757 55.3829 15.1904 56.0096 15.2053 56.7699C15.1325 57.2603 14.912 57.6975 14.5911 57.9828C14.2702 58.2681 13.8744 58.3815 13.4888 58.2986H13.4973ZM18.1089 56.1186C17.9638 56.334 17.7722 56.4899 17.558 56.567C17.3439 56.644 17.1166 56.6388 16.9048 56.5519L16.9133 56.5546H16.5717V58.2986H15.7177V53.2846H16.9133C17.3429 53.2239 17.774 53.3815 18.1132 53.7233L18.1089 53.7206C18.4505 53.9386 18.4505 54.3746 18.4505 54.8106C18.4092 55.3029 18.2932 55.7435 18.1025 56.1322L18.1089 56.1186ZM22.5497 55.6826C22.5845 55.9998 22.5669 56.3227 22.4982 56.6307C22.4295 56.9387 22.3112 57.225 22.1508 57.4712C21.9905 57.7175 21.7916 57.9183 21.5669 58.0608C21.3422 58.2032 21.0966 58.2842 20.846 58.2986H20.5001C20.0036 58.2915 19.5289 58.0366 19.1777 57.5884C18.8266 57.1402 18.6269 56.5344 18.6213 55.9006V55.6826C18.5834 55.0504 18.7395 54.4241 19.0566 53.936C19.3737 53.4479 19.827 53.1362 20.3208 53.0666H20.5087C20.9762 53.0667 21.427 53.2893 21.7729 53.6909C22.1187 54.0925 22.3348 54.6443 22.3789 55.2384V55.2493L22.5497 55.6826ZM25.1117 58.2986C24.9409 57.8626 24.9409 57.6446 24.7701 57.2086C24.5993 56.5546 24.4285 56.3366 24.0869 56.3366H23.7453V58.2986H22.8913V53.2846H24.0869C24.2996 53.2377 24.5178 53.2528 24.7252 53.3288C24.9326 53.4047 25.1239 53.5396 25.2847 53.7233L25.2825 53.7206C25.4977 54.0168 25.6194 54.4041 25.6241 54.8079C25.619 55.0847 25.5527 55.3567 25.433 55.5876C25.3133 55.8185 25.1449 56.0016 24.9473 56.1159L24.9409 56.1186C25.2825 56.3366 25.2825 56.5546 25.4533 56.9906C25.4946 57.4829 25.6106 57.9235 25.8013 58.3122L25.7949 58.2986H25.1117ZM29.3817 54.3746H28.3569V58.2986H27.5029V54.3746H26.3073V53.5026H29.2109V54.3746H29.3817Z" fill="#0D0DD2"/>
<path d="M9.05555 39.1146C8.73452 37.3739 8.5098 35.6064 8.38303 33.8254L8.37235 33.6646H5.46875C5.69429 36.2883 6.46859 38.7863 7.7105 40.8968L7.68915 40.8586C8.06349 40.1683 8.51326 39.5915 9.03847 39.1283L9.05555 39.1146ZM14.8628 33.8826H10.2512C10.2533 35.4386 10.4412 36.9401 10.787 38.3489L10.7636 38.2426C12.0687 37.6747 13.4229 37.3105 14.7966 37.1581L14.8628 37.1526V33.8826ZM14.8628 19.4946C12.984 19.9306 11.7884 22.5466 11.276 24.5086C12.3242 25.0427 13.5391 25.427 14.8051 25.5932L14.8628 25.5986V19.4946ZM14.8628 31.4846V27.9966C13.4286 27.9502 12.0132 27.5688 10.6867 26.8712L10.7636 26.9066C10.4239 28.3931 10.2514 29.9335 10.2512 31.4819L14.8628 31.4846Z" fill="#0D0DD2"/>
</g>
<defs>
<clipPath id="clip0_199_324">
<rect width="49.105" height="65.4" fill="white" transform="translate(0.6875 0.528809)"/>
</clipPath>
</defs>
</svg>
